#Comment line ignore any data following # character 
#Hierarchical Translation and Rotation (.htr) file 
[Header]	
#Header keywords are followed by a single value 
FileType HTR		#Single word string
DataType HTRS		#Translation followed by rotation and scale data
FileVersion 1		#integer
NumSegments 84		#integer
NumFrames 2		#integer
DataFrameRate 30		#integer, data frame rate in this file
EulerRotationOrder ZYX
CalibrationUnits mm
RotationUnits Degrees
GlobalAxisofGravity Y
BoneLengthAxis Y
ScaleFactor 1.00
[SegmentNames&Hierarchy]
#CHILD	PARENT
MASTER GLOBAL
root MASTER
chest root
L_mid_tent01 root
R_mid_tent01 root
spine01 root
Bip01_Neck chest
L_humerus chest
R_humerus chest
weapon_bone chest
Bip01_Head Bip01_Neck
eye_left_bone Bip01_Head
eye_right_bone Bip01_Head
L_forearm L_humerus
L_front_hand L_forearm
L_weapon_bone L_forearm
L_front_hand01_01 L_front_hand
L_front_hand02_01 L_front_hand
L_front_hand03_01 L_front_hand
L_front_hand01_02 L_front_hand01_01
L_front_hand02_02 L_front_hand02_01
L_front_hand03_02 L_front_hand03_01
R_forearm R_humerus
R_front_hand R_forearm
R_weapon_bone R_forearm
R_front_hand01_01 R_front_hand
R_front_hand02_01 R_front_hand
R_front_hand03_01 R_front_hand
R_front_hand01_02 R_front_hand01_01
R_front_hand02_02 R_front_hand02_01
R_front_hand03_02 R_front_hand03_01
null_rope01_connect L_mid_tent01
Rope1_Seg01 null_rope01_connect
Rope1_Seg02 Rope1_Seg01
Rope1_Seg03 Rope1_Seg02
Rope1_Seg04 Rope1_Seg03
Rope1_Seg05 Rope1_Seg04
Rope1_Seg06 Rope1_Seg05
Rope1_Seg07 Rope1_Seg06
Rope1_Seg09 Rope1_Seg07
L_mid_hand01 Rope1_Seg09
L_mid_hand02 Rope1_Seg09
L_mid_hand03 Rope1_Seg09
null_rope02_connect R_mid_tent01
Rope2_Seg01 null_rope02_connect
Rope2_Seg02 Rope2_Seg01
Rope2_Seg03 Rope2_Seg02
Rope2_Seg04 Rope2_Seg03
Rope2_Seg05 Rope2_Seg04
Rope2_Seg06 Rope2_Seg05
Rope2_Seg07 Rope2_Seg06
Rope2_Seg09 Rope2_Seg07
R_mid_hand01 Rope2_Seg09
R_mid_hand02 Rope2_Seg09
R_mid_hand03 Rope2_Seg09
spine02 spine01
spine03 spine02
pelvis spine03
null_rope03_connect pelvis
null_rope04_connect pelvis
Rope3_Seg01 null_rope03_connect
Rope3_Seg02 Rope3_Seg01
Rope3_Seg03 Rope3_Seg02
Rope3_Seg04 Rope3_Seg03
Rope3_Seg05 Rope3_Seg04
Rope3_Seg06 Rope3_Seg05
Rope3_Seg07 Rope3_Seg06
Rope3_Seg08 Rope3_Seg07
Rope3_Seg09 Rope3_Seg08
R_rear_hand01 Rope3_Seg09
R_rear_hand02 Rope3_Seg09
R_rear_hand03 Rope3_Seg09
Rope4_Seg01 null_rope04_connect
Rope4_Seg02 Rope4_Seg01
Rope4_Seg03 Rope4_Seg02
Rope4_Seg04 Rope4_Seg03
Rope4_Seg05 Rope4_Seg04
Rope4_Seg06 Rope4_Seg05
Rope4_Seg07 Rope4_Seg06
Rope4_Seg08 Rope4_Seg07
Rope4_Seg09 Rope4_Seg08
L_rear_hand01 Rope4_Seg09
L_rear_hand02 Rope4_Seg09
L_rear_hand03 Rope4_Seg09
[BasePosition]
#SegmentName Tx, Ty, Tz, Rx, Ry, Rz, BoneLength
MASTER 0.000000 0.000000 0.000000 -90.000000 0.000000 0.000000 10.000000 
root 0.000000 0.000000 0.000000 0.000000 0.000000 0.000000 10.000000 
chest 0.000000 0.000000 0.000000 0.000000 0.000000 0.000000 10.000000 
L_mid_tent01 0.000000 0.000000 0.000000 0.000000 0.000000 0.000000 10.000000 
R_mid_tent01 0.000000 0.000000 0.000000 0.000000 0.000000 0.000000 10.000000 
spine01 0.000000 0.000000 0.000000 0.000000 0.000000 0.000000 10.000000 
Bip01_Neck 0.000000 0.000000 0.000000 0.000000 0.000000 0.000000 10.000000 
L_humerus 0.000000 0.000000 0.000000 0.000000 0.000000 0.000000 10.000000 
R_humerus 0.000000 0.000000 0.000000 0.000000 0.000000 0.000000 10.000000 
weapon_bone 0.000000 0.000000 0.000000 0.000000 0.000000 0.000000 10.000000 
Bip01_Head 0.000000 0.000000 0.000000 0.000000 0.000000 0.000000 10.000000 
eye_left_bone 0.000000 0.000000 0.000000 0.000000 0.000000 0.000000 10.000000 
eye_right_bone 0.000000 0.000000 0.000000 0.000000 0.000000 0.000000 10.000000 
L_forearm 0.000000 0.000000 0.000000 0.000000 0.000000 0.000000 10.000000 
L_front_hand 0.000000 0.000000 0.000000 0.000000 0.000000 0.000000 10.000000 
L_weapon_bone 0.000000 0.000000 0.000000 0.000000 0.000000 0.000000 10.000000 
L_front_hand01_01 0.000000 0.000000 0.000000 0.000000 0.000000 0.000000 10.000000 
L_front_hand02_01 0.000000 0.000000 0.000000 0.000000 0.000000 0.000000 10.000000 
L_front_hand03_01 0.000000 0.000000 0.000000 0.000000 0.000000 0.000000 10.000000 
L_front_hand01_02 0.000000 0.000000 0.000000 0.000000 0.000000 0.000000 10.000000 
L_front_hand02_02 0.000000 0.000000 0.000000 0.000000 0.000000 0.000000 10.000000 
L_front_hand03_02 0.000000 0.000000 0.000000 0.000000 0.000000 0.000000 10.000000 
R_forearm 0.000000 0.000000 0.000000 0.000000 0.000000 0.000000 10.000000 
R_front_hand 0.000000 0.000000 0.000000 0.000000 0.000000 0.000000 10.000000 
R_weapon_bone 0.000000 0.000000 0.000000 0.000000 0.000000 0.000000 10.000000 
R_front_hand01_01 0.000000 0.000000 0.000000 0.000000 0.000000 0.000000 10.000000 
R_front_hand02_01 0.000000 0.000000 0.000000 0.000000 0.000000 0.000000 10.000000 
R_front_hand03_01 0.000000 0.000000 0.000000 0.000000 0.000000 0.000000 10.000000 
R_front_hand01_02 0.000000 0.000000 0.000000 0.000000 0.000000 0.000000 10.000000 
R_front_hand02_02 0.000000 0.000000 0.000000 0.000000 0.000000 0.000000 10.000000 
R_front_hand03_02 0.000000 0.000000 0.000000 0.000000 0.000000 0.000000 10.000000 
null_rope01_connect 0.000000 0.000000 0.000000 0.000000 0.000000 0.000000 10.000000 
Rope1_Seg01 0.000000 0.000000 0.000000 0.000000 0.000000 0.000000 10.000000 
Rope1_Seg02 0.000000 0.000000 0.000000 0.000000 0.000000 0.000000 10.000000 
Rope1_Seg03 0.000000 0.000000 0.000000 0.000000 0.000000 0.000000 10.000000 
Rope1_Seg04 0.000000 0.000000 0.000000 0.000000 0.000000 0.000000 10.000000 
Rope1_Seg05 0.000000 0.000000 0.000000 0.000000 0.000000 0.000000 10.000000 
Rope1_Seg06 0.000000 0.000000 0.000000 0.000000 0.000000 0.000000 10.000000 
Rope1_Seg07 0.000000 0.000000 0.000000 0.000000 0.000000 0.000000 10.000000 
Rope1_Seg09 0.000000 0.000000 0.000000 0.000000 0.000000 0.000000 10.000000 
L_mid_hand01 0.000000 0.000000 0.000000 0.000000 0.000000 0.000000 10.000000 
L_mid_hand02 0.000000 0.000000 0.000000 0.000000 0.000000 0.000000 10.000000 
L_mid_hand03 0.000000 0.000000 0.000000 0.000000 0.000000 0.000000 10.000000 
null_rope02_connect 0.000000 0.000000 0.000000 0.000000 0.000000 0.000000 10.000000 
Rope2_Seg01 0.000000 0.000000 0.000000 0.000000 0.000000 0.000000 10.000000 
Rope2_Seg02 0.000000 0.000000 0.000000 0.000000 0.000000 0.000000 10.000000 
Rope2_Seg03 0.000000 0.000000 0.000000 0.000000 0.000000 0.000000 10.000000 
Rope2_Seg04 0.000000 0.000000 0.000000 0.000000 0.000000 0.000000 10.000000 
Rope2_Seg05 0.000000 0.000000 0.000000 0.000000 0.000000 0.000000 10.000000 
Rope2_Seg06 0.000000 0.000000 0.000000 0.000000 0.000000 0.000000 10.000000 
Rope2_Seg07 0.000000 0.000000 0.000000 0.000000 0.000000 0.000000 10.000000 
Rope2_Seg09 0.000000 0.000000 0.000000 0.000000 0.000000 0.000000 10.000000 
R_mid_hand01 0.000000 0.000000 0.000000 0.000000 0.000000 0.000000 10.000000 
R_mid_hand02 0.000000 0.000000 0.000000 0.000000 0.000000 0.000000 10.000000 
R_mid_hand03 0.000000 0.000000 0.000000 0.000000 0.000000 0.000000 10.000000 
spine02 0.000000 0.000000 0.000000 0.000000 0.000000 0.000000 10.000000 
spine03 0.000000 0.000000 0.000000 0.000000 0.000000 0.000000 10.000000 
pelvis 0.000000 0.000000 0.000000 0.000000 0.000000 0.000000 10.000000 
null_rope03_connect 0.000000 0.000000 0.000000 0.000000 0.000000 0.000000 10.000000 
null_rope04_connect 0.000000 0.000000 0.000000 0.000000 0.000000 0.000000 10.000000 
Rope3_Seg01 0.000000 0.000000 0.000000 0.000000 0.000000 0.000000 10.000000 
Rope3_Seg02 0.000000 0.000000 0.000000 0.000000 0.000000 0.000000 10.000000 
Rope3_Seg03 0.000000 0.000000 0.000000 0.000000 0.000000 0.000000 10.000000 
Rope3_Seg04 0.000000 0.000000 0.000000 0.000000 0.000000 0.000000 10.000000 
Rope3_Seg05 0.000000 0.000000 0.000000 0.000000 0.000000 0.000000 10.000000 
Rope3_Seg06 0.000000 0.000000 0.000000 0.000000 0.000000 0.000000 10.000000 
Rope3_Seg07 0.000000 0.000000 0.000000 0.000000 0.000000 0.000000 10.000000 
Rope3_Seg08 0.000000 0.000000 0.000000 0.000000 0.000000 0.000000 10.000000 
Rope3_Seg09 0.000000 0.000000 0.000000 0.000000 0.000000 0.000000 10.000000 
R_rear_hand01 0.000000 0.000000 0.000000 0.000000 0.000000 0.000000 10.000000 
R_rear_hand02 0.000000 0.000000 0.000000 0.000000 0.000000 0.000000 10.000000 
R_rear_hand03 0.000000 0.000000 0.000000 0.000000 0.000000 0.000000 10.000000 
Rope4_Seg01 0.000000 0.000000 0.000000 0.000000 0.000000 0.000000 10.000000 
Rope4_Seg02 0.000000 0.000000 0.000000 0.000000 0.000000 0.000000 10.000000 
Rope4_Seg03 0.000000 0.000000 0.000000 0.000000 0.000000 0.000000 10.000000 
Rope4_Seg04 0.000000 0.000000 0.000000 0.000000 0.000000 0.000000 10.000000 
Rope4_Seg05 0.000000 0.000000 0.000000 0.000000 0.000000 0.000000 10.000000 
Rope4_Seg06 0.000000 0.000000 0.000000 0.000000 0.000000 0.000000 10.000000 
Rope4_Seg07 0.000000 0.000000 0.000000 0.000000 0.000000 0.000000 10.000000 
Rope4_Seg08 0.000000 0.000000 0.000000 0.000000 0.000000 0.000000 10.000000 
Rope4_Seg09 0.000000 0.000000 0.000000 0.000000 0.000000 0.000000 10.000000 
L_rear_hand01 0.000000 0.000000 0.000000 0.000000 0.000000 0.000000 10.000000 
L_rear_hand02 0.000000 0.000000 0.000000 0.000000 0.000000 0.000000 10.000000 
L_rear_hand03 0.000000 0.000000 0.000000 0.000000 0.000000 0.000000 10.000000 
#Beginning of Data. Separated by tabs
#Fr	Tx	Ty	Tz	Rx	Ry	Rz	SF
[MASTER]
8 1020.230286 -1224.699463 0.000000 0.000079 -0.002346 -93.873047 1593.975708
9 1082.456421 -1429.631836 0.000000 0.000101 -0.002345 -94.924576 1793.197998
[root]
8 -62.822186 34.541878 1073.453735 -75.244247 -8.985639 -179.839447 1075.845093
9 -62.822224 20.147991 1050.506226 -74.459564 -9.273149 -179.876465 1052.575806
[chest]
8 -84.512650 -34.090519 0.000000 -7.658055 3.884491 155.681488 91.129311
9 -84.512650 -34.090519 0.000000 -8.486049 4.395988 155.563400 91.129311
[L_mid_tent01]
8 23.228750 24.509907 -223.761200 -14.904145 24.472317 -19.783834 226.294907
9 23.228750 24.509907 -223.761200 -17.194220 28.158587 -24.516478 226.294907
[R_mid_tent01]
8 23.228794 24.509907 226.238495 -159.410721 -11.594283 -24.371809 228.744751
9 23.228794 24.509907 226.238495 -159.754974 -3.564540 -21.564707 228.744751
[spine01]
8 -0.361383 -0.195265 0.000000 0.001815 0.001488 11.320962 0.410763
9 -0.361383 -0.195265 0.000000 0.001815 0.001488 11.320962 0.410763
[Bip01_Neck]
8 165.484543 71.581718 0.000119 175.896118 1.177290 24.871183 180.302734
9 165.484543 71.581718 0.000119 175.896118 1.177290 24.871185 180.302734
[L_humerus]
8 -13.983130 -135.272980 -120.471481 165.889069 15.521500 -108.020821 181.680161
9 -13.983130 -135.272980 -120.471481 166.550049 12.883478 -108.078163 181.680161
[R_humerus]
8 -13.983309 -135.273102 125.287651 -166.867325 -5.719303 -103.587364 184.909012
9 -13.983309 -135.273102 125.287651 -167.160156 -2.943529 -103.768799 184.909012
[weapon_bone]
8 235.964890 -300.705902 0.000000 0.000000 -89.951546 -128.212341 382.234833
9 235.964890 -300.705902 0.000000 0.000000 -89.951546 -128.212341 382.234833
[Bip01_Head]
8 201.313797 211.516800 15.929725 -17.683882 7.540827 -73.602730 292.438629
9 201.313782 211.516800 15.929725 -18.685907 7.070919 -73.837975 292.438629
[eye_left_bone]
8 -24.626970 125.451866 -64.772606 0.000000 -90.000000 -99.840431 143.318359
9 -24.626970 125.451866 -64.772606 0.000000 -90.000000 -99.840431 143.318359
[eye_right_bone]
8 -24.626970 125.451866 64.327362 0.000000 -89.965736 80.156380 143.117676
9 -24.626970 125.451866 64.327362 0.000000 -89.972023 80.156380 143.117676
[L_forearm]
8 322.776093 0.000000 -0.000119 0.000357 -0.002320 -107.506004 322.776093
9 322.776093 0.000000 -0.000119 0.000357 -0.002320 -107.506004 322.776093
[L_front_hand]
8 241.149185 -0.042021 -3.300071 -179.431961 -2.195943 -5.942918 241.171753
9 241.149185 -0.042021 -3.300071 -179.431961 -2.195943 -5.942917 241.171753
[L_weapon_bone]
8 156.183838 0.000000 0.000000 0.000014 0.000007 0.000001 156.183838
9 156.183838 0.000000 0.000000 0.000014 0.000007 0.000001 156.183838
[L_front_hand01_01]
8 86.095154 20.947098 -0.655860 0.139491 -0.584553 24.181791 88.609184
9 86.095154 20.947098 -0.655860 0.139491 -0.584553 24.181786 88.609184
[L_front_hand02_01]
8 86.935165 -11.437475 24.513514 119.190460 -21.905655 -12.119137 91.046425
9 86.935165 -11.437475 24.513514 119.190460 -21.905651 -12.119137 91.046425
[L_front_hand03_01]
8 86.637497 -14.123976 -20.424902 -120.437630 20.554031 -14.327168 90.126129
9 86.637497 -14.123976 -20.424902 -120.437630 20.554033 -14.327168 90.126129
[L_front_hand01_02]
8 71.020905 -0.000179 0.000030 0.000334 -0.002323 -106.379684 71.020905
9 71.020905 -0.000179 0.000030 0.000334 -0.002323 -106.379700 71.020905
[L_front_hand02_02]
8 71.020927 -0.000119 0.000060 0.000334 -0.002323 -106.379684 71.020927
9 71.020927 -0.000119 0.000060 0.000334 -0.002323 -106.379700 71.020927
[L_front_hand03_02]
8 71.020905 -0.000060 0.000060 0.000334 -0.002323 -106.379684 71.020905
9 71.020905 -0.000060 0.000060 0.000334 -0.002323 -106.379700 71.020905
[R_forearm]
8 322.776428 -0.000060 0.000030 0.196737 0.083011 -114.368637 322.776428
9 322.776428 -0.000060 0.000030 0.196737 0.083011 -114.368637 322.776428
[R_front_hand]
8 238.847015 -0.006795 2.210259 -0.341870 1.692706 -0.151780 238.857239
9 238.847015 -0.006795 2.210259 -0.341870 1.692705 -0.151779 238.857239
[R_weapon_bone]
8 155.664093 0.002503 -0.000030 0.003487 0.001180 -90.988930 155.664078
9 155.664093 0.002503 -0.000030 0.003487 0.001180 -90.988930 155.664078
[R_front_hand01_01]
8 87.624611 14.231146 22.918642 -119.218056 -22.033409 12.303375 91.683487
9 87.624611 14.231146 22.918642 -119.218056 -22.033405 12.303373 91.683487
[R_front_hand02_01]
8 89.356956 14.367283 -19.491137 120.545517 20.947186 14.823009 92.579636
9 89.356956 14.367283 -19.491137 120.545532 20.947186 14.823011 92.579636
[R_front_hand03_01]
8 87.286232 -22.307278 -0.143439 -0.231628 -0.392922 -24.567768 90.091743
9 87.286232 -22.307278 -0.143439 -0.231628 -0.392922 -24.567768 90.091743
[R_front_hand01_02]
8 71.020905 0.000060 0.000119 0.002323 -0.000334 106.381714 71.020905
9 71.020905 0.000060 0.000119 0.002323 -0.000334 106.381714 71.020905
[R_front_hand02_02]
8 71.020844 -0.000030 -0.000119 0.002323 -0.000334 106.381714 71.020836
9 71.020844 -0.000030 -0.000119 0.002323 -0.000334 106.381714 71.020836
[R_front_hand03_02]
8 71.020905 0.000000 0.000030 0.002323 -0.000334 106.381714 71.020905
9 71.020905 0.000000 0.000030 0.002323 -0.000334 106.381714 71.020905
[null_rope01_connect]
8 328.732483 0.000000 -0.000238 68.803436 57.923809 1.075731 328.732483
9 328.732483 0.000000 -0.000238 67.968948 52.034424 3.535490 328.732483
[Rope1_Seg01]
8 0.000050 0.000000 -0.000058 25.819965 -20.695166 78.248283 0.000077
9 0.000055 0.000000 -0.000056 37.128414 -22.035580 68.899040 0.000078
[Rope1_Seg02]
8 139.999863 -0.000179 0.000000 -3.553760 4.464070 0.734633 139.999863
9 139.999863 -0.000179 0.000000 -3.809083 4.004262 1.581717 139.999863
[Rope1_Seg03]
8 139.999924 0.000060 -0.000060 -6.178555 6.706366 1.544552 139.999924
9 139.999924 0.000060 -0.000060 -6.372908 6.081523 2.892367 139.999924
[Rope1_Seg04]
8 139.999924 -0.000060 -0.000119 -16.743898 14.442820 6.624733 139.999924
9 139.999924 -0.000060 -0.000119 -12.957715 10.734718 8.223104 139.999924
[Rope1_Seg05]
8 139.999832 0.000119 -0.000060 -17.871717 13.764585 7.954374 139.999832
9 139.999832 0.000119 -0.000060 -20.515533 19.369268 23.054588 139.999832
[Rope1_Seg06]
8 139.999954 0.000119 -0.000060 5.157295 0.670761 -6.372824 139.999954
9 139.999954 0.000119 -0.000060 -5.165111 9.829894 -2.500049 139.999954
[Rope1_Seg07]
8 139.999985 0.000060 0.000000 -0.623458 1.160271 -0.677318 139.999985
9 139.999985 0.000060 0.000000 -2.032963 3.613250 -1.121556 139.999985
[Rope1_Seg09]
8 121.602913 0.000119 -0.000089 -89.793175 -1.359789 0.847147 121.602913
9 121.602913 0.000119 -0.000089 -89.793175 -1.359789 0.847147 121.602913
[L_mid_hand01]
8 103.859421 1.038730 8.195221 106.855484 -31.239275 -9.461397 104.187431
9 103.859421 1.038730 8.195221 106.855484 -31.239275 -9.461397 104.187431
[L_mid_hand02]
8 105.572853 -4.139662 -10.864139 -142.331345 25.752670 -28.774628 106.211075
9 105.572853 -4.139662 -10.864139 -142.331345 25.752670 -28.774628 106.211075
[L_mid_hand03]
8 104.641464 17.579376 -3.913581 -16.122810 9.734291 34.223598 106.179977
9 104.641464 17.579376 -3.913581 -16.122810 9.734291 34.223598 106.179977
[null_rope02_connect]
8 328.732849 0.000179 -0.000119 141.256653 -58.021980 94.174568 328.732849
9 328.732849 0.000179 -0.000119 158.704147 -57.257591 78.273849 328.732849
[Rope2_Seg01]
8 -0.000116 -0.000117 -0.000117 30.725880 -17.940420 133.304642 0.000202
9 -0.000118 -0.000112 -0.000112 31.715195 -26.108379 131.817154 0.000197
[Rope2_Seg02]
8 139.999741 -0.000060 -0.000119 2.494733 -1.645778 -1.365051 139.999756
9 139.999741 -0.000060 -0.000119 0.712899 2.074976 -1.701961 139.999756
[Rope2_Seg03]
8 140.000107 0.000030 0.000000 2.431246 -1.756062 -1.331846 140.000107
9 140.000107 0.000030 0.000000 0.916088 1.741410 -1.676156 140.000107
[Rope2_Seg04]
8 139.999802 0.000000 -0.000060 4.535259 -4.110934 -2.434649 139.999802
9 139.999802 0.000000 -0.000060 3.292928 0.843808 -3.294566 139.999802
[Rope2_Seg05]
8 139.999985 -0.000060 0.000119 1.924909 -1.908734 -1.123725 139.999985
9 139.999985 -0.000060 0.000119 -0.792147 1.731660 -0.158704 139.999985
[Rope2_Seg06]
8 139.999893 -0.000030 -0.000119 -4.681589 5.709047 1.750582 139.999893
9 139.999893 -0.000030 -0.000119 -7.318567 3.598435 4.200252 139.999893
[Rope2_Seg07]
8 139.999893 0.000060 -0.000060 -9.485747 8.300710 3.482279 139.999893
9 139.999893 0.000060 -0.000060 -8.339824 3.156529 5.071371 139.999893
[Rope2_Seg09]
8 121.338966 0.000089 -0.000060 33.793236 -1.359788 -0.847141 121.338966
9 121.338966 0.000089 -0.000060 33.793236 -1.359788 -0.847141 121.338966
[R_mid_hand01]
8 104.680779 11.144459 -10.335981 -41.523792 25.424656 28.595957 105.778534
9 104.680779 11.144459 -10.335981 -41.523792 25.424656 28.595957 105.778534
[R_mid_hand02]
8 104.070427 2.443552 8.231699 72.847389 -32.746803 10.013901 104.424065
9 104.070427 2.443552 8.231699 72.847389 -32.746803 10.013901 104.424065
[R_mid_hand03]
8 106.028137 -11.221827 -5.996406 -167.901306 10.259192 -37.009720 106.788818
9 106.028137 -11.221827 -5.996406 -167.901306 10.259192 -37.009720 106.788818
[spine02]
8 129.756927 0.001550 0.000119 0.001147 -1.797838 -7.854275 129.756927
9 129.756927 0.001550 0.000119 0.001147 -1.797837 -7.854274 129.756927
[spine03]
8 79.115631 0.000000 -0.000119 1.459971 -2.848092 23.765963 79.115631
9 79.115631 0.000000 -0.000119 1.459971 -2.848092 23.765963 79.115631
[pelvis]
8 169.435242 0.051022 0.000000 -0.000005 0.000003 -4.322055 169.435257
9 169.435242 0.051022 0.000000 -0.000005 0.000003 -4.322055 169.435257
[null_rope03_connect]
8 -1.257226 -2.466202 137.391083 -9.847368 73.099297 -112.817368 137.418976
9 -1.257226 -2.466202 137.391083 -6.764114 72.498718 -109.226784 137.418976
[null_rope04_connect]
8 -1.259640 -2.480268 -137.844437 -9.847368 73.099297 -112.817368 137.872513
9 -1.259640 -2.480268 -137.844437 -6.764114 72.498718 -109.226784 137.872513
[Rope3_Seg01]
8 0.000050 0.000000 -0.000058 -128.555878 6.914516 117.095497 0.000077
9 0.000055 0.000000 -0.000056 -129.661774 2.577413 115.625175 0.000078
[Rope3_Seg02]
8 139.999924 -0.000119 0.000060 -0.259745 5.879749 3.301820 139.999924
9 139.999924 -0.000119 0.000060 -0.089992 4.270345 3.384000 139.999924
[Rope3_Seg03]
8 139.999924 -0.000119 0.000119 0.226523 7.913366 4.539757 139.999924
9 139.999924 -0.000119 0.000119 0.147728 5.615798 4.491279 139.999924
[Rope3_Seg04]
8 139.999924 0.000119 0.000000 1.401258 11.006225 6.564907 139.999924
9 139.999924 0.000119 0.000000 0.634537 7.501073 6.316214 139.999924
[Rope3_Seg05]
8 139.999924 -0.000238 0.000060 5.427653 16.750561 10.963786 139.999924
9 139.999924 -0.000238 0.000060 2.078303 10.566248 10.984531 139.999924
[Rope3_Seg06]
8 139.999893 -0.000119 -0.000060 5.239822 9.559574 3.540587 139.999893
9 139.999893 -0.000119 -0.000060 4.111986 10.139003 5.639812 139.999893
[Rope3_Seg07]
8 139.999771 0.000060 -0.000119 1.736647 -0.550767 -3.712120 139.999771
9 139.999771 0.000060 -0.000119 5.025901 6.177567 -2.776263 139.999771
[Rope3_Seg08]
8 139.999985 -0.000060 0.000000 1.416493 -0.393573 -2.847501 139.999985
9 139.999985 -0.000060 0.000000 3.808931 4.457305 -1.652715 139.999985
[Rope3_Seg09]
8 90.185997 -0.000179 -0.000060 89.793228 -1.359877 -0.847183 90.185997
9 90.185997 -0.000179 -0.000060 89.793228 -1.359877 -0.847183 90.185997
[R_rear_hand01]
8 103.366196 -6.073594 -10.757982 -161.551193 16.666374 -30.088671 104.101845
9 103.366196 -6.073594 -10.757982 -161.551193 16.666374 -30.088671 104.101845
[R_rear_hand02]
8 100.509819 12.039542 -7.992327 -34.280552 19.289745 28.875523 101.543350
9 100.509819 12.039542 -7.992327 -34.280552 19.289745 28.875523 101.543350
[R_rear_hand03]
8 101.539970 5.215704 5.435467 83.366440 -30.933914 7.284830 101.819031
9 101.539970 5.215704 5.435467 83.366440 -30.933914 7.284830 101.819031
[Rope4_Seg01]
8 0.000017 -0.000084 -0.000153 24.682720 -11.874668 132.548889 0.000175
9 0.000017 -0.000107 -0.000153 22.493185 -24.358648 125.529099 0.000187
[Rope4_Seg02]
8 139.999985 0.000060 0.000119 14.152916 -13.227069 -29.269243 139.999985
9 139.999985 0.000060 0.000119 9.967505 -3.276011 -26.073547 139.999985
[Rope4_Seg03]
8 139.999924 0.000000 -0.000238 3.716648 -13.157238 -19.290718 139.999924
9 139.999924 0.000000 -0.000238 3.112791 -4.662871 -19.147263 139.999924
[Rope4_Seg04]
8 139.999985 0.000000 0.000119 -0.223874 -7.385106 -11.207293 139.999985
9 139.999985 0.000000 0.000119 -0.016006 -1.875932 -12.547290 139.999985
[Rope4_Seg05]
8 139.999802 -0.000060 -0.000119 -0.247745 -2.924172 -3.025066 139.999802
9 139.999802 -0.000060 -0.000119 -0.103528 -2.867381 -3.904825 139.999802
[Rope4_Seg06]
8 139.999924 0.000000 0.000060 0.491026 -1.745742 0.345370 139.999924
9 139.999924 0.000000 0.000060 0.556516 -4.717858 -0.011366 139.999924
[Rope4_Seg07]
8 139.999802 0.000000 0.000000 1.408243 -1.474690 3.362464 139.999802
9 139.999802 0.000000 0.000000 1.610950 -7.171850 2.477975 139.999802
[Rope4_Seg08]
8 139.999924 0.000000 0.000119 -0.651561 -1.715171 1.668489 139.999924
9 139.999924 0.000000 0.000119 -0.513583 -4.686552 0.374122 139.999924
[Rope4_Seg09]
8 90.185791 0.000060 0.000060 -135.617828 2.228885 0.850567 90.185791
9 90.185791 0.000060 0.000060 -135.617828 2.228885 0.850567 90.185791
[L_rear_hand01]
8 101.696655 -8.392275 -7.654577 -34.454281 -18.946800 151.655121 102.329041
9 101.696655 -8.392275 -7.654577 -34.454281 -18.946800 151.655121 102.329041
[L_rear_hand02]
8 102.726799 -1.568258 5.773216 83.407906 30.330435 172.796509 102.900848
9 102.726799 -1.568258 5.773216 83.407906 30.330435 172.796509 102.900848
[L_rear_hand03]
8 104.552910 9.721220 -10.420293 -161.379868 -16.473232 -150.512238 105.519653
9 104.552910 9.721220 -10.420293 -161.379868 -16.473232 -150.512238 105.519653
